<svg width="64" height="32" viewBox="0 0 64 32" fill="none" xmlns="http://www.w3.org/2000/svg">
<rect x="0.5" y="0.5" width="63" height="31" rx="9.5" fill="#ECEBE4"/>
<rect x="0.5" y="0.5" width="63" height="31" rx="9.5" stroke="#D5D5D5"/>
<path d="M19.7363 10.9766C20.1895 10.9727 20.6055 11.0527 20.9844 11.2168C21.3672 11.3809 21.6816 11.6133 21.9277 11.9141C22.1777 12.2109 22.3418 12.5547 22.4199 12.9453H24.4707V10.4961H25.584V16.1328H24.4707V13.8594H22.4258C22.3516 14.2578 22.1895 14.6094 21.9395 14.9141C21.6934 15.2188 21.3789 15.4551 20.9961 15.623C20.6172 15.791 20.1973 15.875 19.7363 15.875C19.2051 15.875 18.7305 15.7715 18.3125 15.5645C17.8945 15.3535 17.5684 15.0625 17.334 14.6914C17.0996 14.3164 16.9824 13.8906 16.9824 13.4141C16.9824 12.9414 17.0996 12.5195 17.334 12.1484C17.5723 11.7773 17.9004 11.4883 18.3184 11.2812C18.7363 11.0742 19.209 10.9727 19.7363 10.9766ZM19.7363 11.9023C19.4082 11.9023 19.1152 11.9668 18.8574 12.0957C18.6035 12.2207 18.4043 12.3984 18.2598 12.6289C18.1191 12.8555 18.0488 13.1172 18.0488 13.4141C18.0488 13.7109 18.1191 13.9746 18.2598 14.2051C18.4043 14.4355 18.6035 14.6152 18.8574 14.7441C19.1152 14.873 19.4082 14.9375 19.7363 14.9375C20.0566 14.9375 20.3418 14.873 20.5918 14.7441C20.8457 14.6152 21.043 14.4355 21.1836 14.2051C21.3281 13.9746 21.4004 13.7109 21.4004 13.4141C21.4004 13.1172 21.3301 12.8555 21.1895 12.6289C21.0488 12.3984 20.8516 12.2207 20.5977 12.0957C20.3438 11.9668 20.0566 11.9023 19.7363 11.9023ZM19.8418 17.8555H24.4707V16.6367H25.584V20.8672H18.7402V16.6367H19.8418V17.8555ZM24.4707 19.9531V18.7344H19.8418V19.9531H24.4707ZM36.8105 19.7422H27.2012V18.8047H31.4316V16.9648H28.373V13.625H34.5371V12.1484H28.3496V11.2344H35.6387V14.5156H29.4746V16.0508H35.8848V16.9648H32.5332V18.8047H36.8105V19.7422ZM46.0801 16.3906H38.7676V11.4336H45.9863V12.3477H39.8691V15.4766H46.0801V16.3906ZM47.1816 19.6133H37.5723V18.6875H47.1816V19.6133Z" fill="black"/>
</svg>
