<svg width="343" height="59" viewBox="0 0 343 59" fill="none" xmlns="http://www.w3.org/2000/svg">
<rect x="0.5" y="0.5" width="342" height="58" rx="9.5" fill="#366943"/>
<rect x="0.5" y="0.5" width="342" height="58" rx="9.5" stroke="#366943"/>
<path d="M145.713 22.3594C146.48 22.3594 147.166 22.4941 147.77 22.7637C148.373 23.0273 148.845 23.4023 149.185 23.8887C149.524 24.375 149.697 24.9316 149.703 25.5586C149.697 26.0742 149.568 26.5488 149.316 26.9824C149.07 27.4102 148.725 27.7676 148.279 28.0547C147.834 28.3418 147.318 28.541 146.732 28.6523V29.9443C148.145 29.8623 149.439 29.7363 150.617 29.5664L150.775 30.9902C149.305 31.2539 147.77 31.4297 146.17 31.5176C144.576 31.5996 142.883 31.6406 141.09 31.6406L140.879 30.0762H141.67C142.52 30.0762 143.551 30.0615 144.764 30.0322V28.6611C144.16 28.5615 143.627 28.3682 143.164 28.0811C142.707 27.7939 142.353 27.4336 142.101 27C141.854 26.5664 141.734 26.0859 141.74 25.5586C141.734 24.9316 141.898 24.375 142.232 23.8887C142.572 23.4023 143.044 23.0273 143.647 22.7637C144.251 22.4941 144.939 22.3594 145.713 22.3594ZM145.713 23.8535C145.291 23.8535 144.916 23.9209 144.588 24.0557C144.266 24.1904 144.014 24.3867 143.832 24.6445C143.65 24.9023 143.562 25.207 143.568 25.5586C143.562 25.8984 143.65 26.1973 143.832 26.4551C144.014 26.707 144.266 26.9033 144.588 27.0439C144.916 27.1846 145.291 27.2578 145.713 27.2637C146.352 27.252 146.867 27.0938 147.26 26.7891C147.652 26.4844 147.852 26.0742 147.857 25.5586C147.852 25.0312 147.652 24.6152 147.26 24.3105C146.867 24.0059 146.352 23.8535 145.713 23.8535ZM153.5 26.8242H155.645V28.4414H153.5V33.8203H151.549V21.6914H153.5V26.8242ZM154.062 37.2305H143.059V32.748H145.01V35.6484H154.062V37.2305ZM170.99 35.7188H156.471V34.1016H160.32V31.4824H158.193V26.2969H167.334V24.3457H158.158V22.7637H169.268V27.8613H160.145V29.9004H169.637V31.4824H167.316V34.1016H170.99V35.7188ZM165.4 34.1016V31.4824H162.219V34.1016H165.4ZM184.473 28.002H186.916V29.6191H184.473V37.5645H182.539V21.6738H184.473V28.002ZM181.309 25.6816H171.939V24.1172H175.701V21.9023H177.652V24.1172H181.309V25.6816ZM176.686 26.7188C177.441 26.7188 178.121 26.8799 178.725 27.2021C179.334 27.5186 179.812 27.9609 180.157 28.5293C180.503 29.0977 180.676 29.7422 180.676 30.4629C180.676 31.1836 180.503 31.8281 180.157 32.3965C179.812 32.959 179.334 33.3984 178.725 33.7148C178.121 34.0312 177.441 34.1895 176.686 34.1895C175.918 34.1895 175.229 34.0312 174.62 33.7148C174.011 33.3984 173.533 32.959 173.188 32.3965C172.842 31.8281 172.672 31.1836 172.678 30.4629C172.672 29.7422 172.842 29.0977 173.188 28.5293C173.533 27.9609 174.011 27.5186 174.62 27.2021C175.229 26.8799 175.918 26.7188 176.686 26.7188ZM176.686 28.3184C176.27 28.3184 175.897 28.4062 175.569 28.582C175.247 28.7578 174.995 29.0098 174.813 29.3379C174.632 29.6602 174.541 30.0352 174.541 30.4629C174.541 30.8906 174.632 31.2656 174.813 31.5879C174.995 31.9043 175.247 32.1504 175.569 32.3262C175.897 32.4961 176.27 32.5781 176.686 32.5723C177.09 32.5781 177.45 32.4961 177.767 32.3262C178.089 32.1504 178.341 31.9043 178.522 31.5879C178.71 31.2656 178.807 30.8906 178.812 30.4629C178.807 30.0352 178.71 29.6602 178.522 29.3379C178.341 29.0156 178.089 28.7666 177.767 28.5908C177.45 28.4092 177.09 28.3184 176.686 28.3184ZM200.855 37.5645H198.887V21.6738H200.855V37.5645ZM196.109 23.3613C196.109 25.8867 195.538 28.1045 194.396 30.0146C193.253 31.9189 191.357 33.498 188.709 34.752L187.689 33.1875C189.734 32.2148 191.272 31.0518 192.304 29.6982C193.341 28.3389 193.947 26.7422 194.123 24.9082H188.498V23.3613H196.109Z" fill="white"/>
</svg>
