<svg width="140" height="37" viewBox="0 0 140 37" fill="none" xmlns="http://www.w3.org/2000/svg">
<rect width="140" height="37" rx="10" fill="white"/>
<path d="M37.518 16.586H40.192V17.79H37.518V16.586ZM39.772 13.366H41.242V20.982H39.772V13.366ZM36.972 21.318C39.646 21.318 41.284 22.228 41.284 23.74C41.284 25.28 39.646 26.162 36.972 26.162C34.298 26.162 32.66 25.28 32.66 23.74C32.66 22.228 34.298 21.318 36.972 21.318ZM36.972 22.452C35.166 22.452 34.116 22.9 34.116 23.74C34.116 24.58 35.166 25.028 36.972 25.028C38.792 25.028 39.828 24.58 39.828 23.74C39.828 22.9 38.792 22.452 36.972 22.452ZM33.766 14.654H34.956V15.592C34.956 17.986 33.654 20.1 31.386 20.912L30.63 19.75C32.632 19.05 33.766 17.342 33.766 15.592V14.654ZM34.06 14.654H35.236V15.578C35.236 17.174 36.328 18.756 38.246 19.414L37.518 20.576C35.306 19.806 34.06 17.79 34.06 15.578V14.654ZM31.05 14.234H37.91V15.41H31.05V14.234ZM43.2429 23.39H54.8349V24.594H43.2429V23.39ZM48.2829 20.478H49.7389V23.712H48.2829V20.478ZM44.5309 14.234H46.0009V16.376H52.0349V14.234H53.4909V20.828H44.5309V14.234ZM46.0009 17.538V19.638H52.0349V17.538H46.0009ZM68.2263 13.366H69.6403V26.162H68.2263V13.366ZM62.8923 18.448H65.9023V19.624H62.8923V18.448ZM65.5523 13.674H66.9243V25.546H65.5523V13.674ZM62.7943 14.934H64.2083C64.2083 18.42 62.9763 21.388 59.4623 23.446L58.6223 22.41C61.5903 20.632 62.7943 18.266 62.7943 15.214V14.934ZM59.2523 14.934H63.2983V16.124H59.2523V14.934ZM74.5533 14.416H75.7573V16.516C75.7573 19.61 74.3713 22.452 72.0753 23.572L71.1933 22.354C73.2373 21.43 74.5533 18.966 74.5533 16.516V14.416ZM74.8333 14.416H76.0233V16.516C76.0233 18.868 77.3253 21.22 79.3413 22.116L78.4733 23.292C76.2193 22.228 74.8333 19.498 74.8333 16.516V14.416ZM80.3633 13.352H81.8333V26.176H80.3633V13.352ZM85.3462 13.898H93.5222V15.06H85.3462V13.898ZM83.9042 18.014H95.4962V19.19H83.9042V18.014ZM92.6122 13.898H94.0542V14.738C94.0542 15.662 94.0542 16.838 93.7182 18.364L92.2762 18.224C92.6122 16.712 92.6122 15.634 92.6122 14.738V13.898ZM85.2342 20.282H94.0542V23.684H86.7182V25.252H85.2482V22.578H92.5982V21.43H85.2342V20.282ZM85.2482 24.888H94.3902V26.036H85.2482V24.888ZM102.378 14.682H103.582V15.606C103.582 17.986 102.28 20.044 100.012 20.814L99.2416 19.68C101.258 18.994 102.378 17.342 102.378 15.606V14.682ZM102.658 14.682H103.848V15.606C103.848 17.216 104.926 18.784 106.886 19.428L106.144 20.576C103.904 19.82 102.658 17.846 102.658 15.606V14.682ZM99.6616 14.192H106.536V15.382H99.6616V14.192ZM107.88 13.366H109.35V21.066H107.88V13.366ZM108.944 16.614H111.156V17.832H108.944V16.614ZM100.936 21.696H109.35V26.162H107.88V22.886H100.936V21.696ZM115.075 14.066H116.293V15.298C116.293 17.818 115.005 19.946 112.667 20.772L111.897 19.582C113.955 18.896 115.075 17.174 115.075 15.298V14.066ZM115.355 14.066H116.545V15.242C116.545 17.006 117.609 18.602 119.555 19.246L118.771 20.394C116.573 19.596 115.355 17.636 115.355 15.242V14.066ZM121.095 13.366H122.565V20.898H121.095V13.366ZM118.295 21.262C120.969 21.262 122.607 22.158 122.607 23.698C122.607 25.252 120.969 26.148 118.295 26.148C115.621 26.148 113.983 25.252 113.983 23.698C113.983 22.158 115.621 21.262 118.295 21.262ZM118.295 22.41C116.489 22.41 115.439 22.872 115.439 23.698C115.439 24.538 116.489 25 118.295 25C120.115 25 121.151 24.538 121.151 23.698C121.151 22.872 120.115 22.41 118.295 22.41ZM118.505 15.9H121.347V17.104H118.505V15.9Z" fill="black"/>
<path fill-rule="evenodd" clip-rule="evenodd" d="M23.9687 24.7119H19.4355C19.1768 24.7119 18.9668 24.5019 18.9668 24.2432C18.9668 23.9844 19.1768 23.7744 19.4355 23.7744H23.9687C24.2274 23.7744 24.4374 23.9844 24.4374 24.2432C24.4374 24.5019 24.2274 24.7119 23.9687 24.7119Z" fill="black"/>
<mask id="mask0_153_28875" style="mask-type:luminance" maskUnits="userSpaceOnUse" x="12" y="12" width="11" height="13">
<path fill-rule="evenodd" clip-rule="evenodd" d="M12.25 12.875H22.9879V24.7122H12.25V12.875Z" fill="white"/>
</mask>
<g mask="url(#mask0_153_28875)">
<path fill-rule="evenodd" clip-rule="evenodd" d="M19.1939 14.1354L13.3095 21.4948C13.2027 21.6285 13.1633 21.801 13.2027 21.9667L13.6283 23.7698L15.5277 23.746C15.7083 23.7442 15.8752 23.6635 15.9858 23.526C17.9964 21.0104 21.8295 16.2142 21.9383 16.0735C22.0408 15.9073 22.0808 15.6723 22.027 15.446C21.972 15.2142 21.8277 15.0173 21.6195 14.8917C21.5752 14.861 20.522 14.0435 20.4895 14.0179C20.0933 13.7004 19.5152 13.7554 19.1939 14.1354ZM13.2583 24.7123C13.0414 24.7123 12.8527 24.5635 12.802 24.3517L12.2902 22.1823C12.1845 21.7329 12.2895 21.2692 12.5777 20.9092L18.4652 13.5454C18.4677 13.5429 18.4695 13.5398 18.472 13.5373C19.1177 12.7654 20.2852 12.6517 21.0727 13.2835C21.1039 13.3079 22.1495 14.1204 22.1495 14.1204C22.5295 14.3467 22.8264 14.751 22.9389 15.2298C23.0508 15.7035 22.9695 16.1923 22.7089 16.6054C22.6895 16.636 22.6727 16.6623 16.7177 24.1123C16.4308 24.4698 16.0008 24.6779 15.5389 24.6835L13.2645 24.7123H13.2583Z" fill="black"/>
</g>
<path fill-rule="evenodd" clip-rule="evenodd" d="M21.1399 18.3026C21.0399 18.3026 20.9399 18.2707 20.8543 18.2057L17.4468 15.5882C17.2418 15.4307 17.203 15.137 17.3605 14.9307C17.5186 14.7257 17.8124 14.6876 18.018 14.8451L21.4261 17.462C21.6311 17.6195 21.6699 17.9139 21.5118 18.1195C21.4199 18.2395 21.2805 18.3026 21.1399 18.3026Z" fill="black"/>
</svg>
