<svg width="140" height="37" viewBox="0 0 140 37" fill="none" xmlns="http://www.w3.org/2000/svg">
<rect width="140" height="37" rx="10" fill="#366943"/>
<path d="M37.518 16.586H40.192V17.79H37.518V16.586ZM39.772 13.366H41.242V20.982H39.772V13.366ZM36.972 21.318C39.646 21.318 41.284 22.228 41.284 23.74C41.284 25.28 39.646 26.162 36.972 26.162C34.298 26.162 32.66 25.28 32.66 23.74C32.66 22.228 34.298 21.318 36.972 21.318ZM36.972 22.452C35.166 22.452 34.116 22.9 34.116 23.74C34.116 24.58 35.166 25.028 36.972 25.028C38.792 25.028 39.828 24.58 39.828 23.74C39.828 22.9 38.792 22.452 36.972 22.452ZM33.766 14.654H34.956V15.592C34.956 17.986 33.654 20.1 31.386 20.912L30.63 19.75C32.632 19.05 33.766 17.342 33.766 15.592V14.654ZM34.06 14.654H35.236V15.578C35.236 17.174 36.328 18.756 38.246 19.414L37.518 20.576C35.306 19.806 34.06 17.79 34.06 15.578V14.654ZM31.05 14.234H37.91V15.41H31.05V14.234ZM43.2429 23.39H54.8349V24.594H43.2429V23.39ZM48.2829 20.478H49.7389V23.712H48.2829V20.478ZM44.5309 14.234H46.0009V16.376H52.0349V14.234H53.4909V20.828H44.5309V14.234ZM46.0009 17.538V19.638H52.0349V17.538H46.0009ZM68.2263 13.366H69.6403V26.162H68.2263V13.366ZM62.8923 18.448H65.9023V19.624H62.8923V18.448ZM65.5523 13.674H66.9243V25.546H65.5523V13.674ZM62.7943 14.934H64.2083C64.2083 18.42 62.9763 21.388 59.4623 23.446L58.6223 22.41C61.5903 20.632 62.7943 18.266 62.7943 15.214V14.934ZM59.2523 14.934H63.2983V16.124H59.2523V14.934ZM74.5533 14.416H75.7573V16.516C75.7573 19.61 74.3713 22.452 72.0753 23.572L71.1933 22.354C73.2373 21.43 74.5533 18.966 74.5533 16.516V14.416ZM74.8333 14.416H76.0233V16.516C76.0233 18.868 77.3253 21.22 79.3413 22.116L78.4733 23.292C76.2193 22.228 74.8333 19.498 74.8333 16.516V14.416ZM80.3633 13.352H81.8333V26.176H80.3633V13.352ZM85.3462 13.898H93.5222V15.06H85.3462V13.898ZM83.9042 18.014H95.4962V19.19H83.9042V18.014ZM92.6122 13.898H94.0542V14.738C94.0542 15.662 94.0542 16.838 93.7182 18.364L92.2762 18.224C92.6122 16.712 92.6122 15.634 92.6122 14.738V13.898ZM85.2342 20.282H94.0542V23.684H86.7182V25.252H85.2482V22.578H92.5982V21.43H85.2342V20.282ZM85.2482 24.888H94.3902V26.036H85.2482V24.888ZM102.378 14.682H103.582V15.606C103.582 17.986 102.28 20.044 100.012 20.814L99.2416 19.68C101.258 18.994 102.378 17.342 102.378 15.606V14.682ZM102.658 14.682H103.848V15.606C103.848 17.216 104.926 18.784 106.886 19.428L106.144 20.576C103.904 19.82 102.658 17.846 102.658 15.606V14.682ZM99.6616 14.192H106.536V15.382H99.6616V14.192ZM107.88 13.366H109.35V21.066H107.88V13.366ZM108.944 16.614H111.156V17.832H108.944V16.614ZM100.936 21.696H109.35V26.162H107.88V22.886H100.936V21.696ZM115.075 14.066H116.293V15.298C116.293 17.818 115.005 19.946 112.667 20.772L111.897 19.582C113.955 18.896 115.075 17.174 115.075 15.298V14.066ZM115.355 14.066H116.545V15.242C116.545 17.006 117.609 18.602 119.555 19.246L118.771 20.394C116.573 19.596 115.355 17.636 115.355 15.242V14.066ZM121.095 13.366H122.565V20.898H121.095V13.366ZM118.295 21.262C120.969 21.262 122.607 22.158 122.607 23.698C122.607 25.252 120.969 26.148 118.295 26.148C115.621 26.148 113.983 25.252 113.983 23.698C113.983 22.158 115.621 21.262 118.295 21.262ZM118.295 22.41C116.489 22.41 115.439 22.872 115.439 23.698C115.439 24.538 116.489 25 118.295 25C120.115 25 121.151 24.538 121.151 23.698C121.151 22.872 120.115 22.41 118.295 22.41ZM118.505 15.9H121.347V17.104H118.505V15.9Z" fill="white"/>
<path fill-rule="evenodd" clip-rule="evenodd" d="M25.9692 25.7123H21.436C21.1773 25.7123 20.9673 25.5023 20.9673 25.2436C20.9673 24.9848 21.1773 24.7748 21.436 24.7748H25.9692C26.2279 24.7748 26.4379 24.9848 26.4379 25.2436C26.4379 25.5023 26.2279 25.7123 25.9692 25.7123Z" fill="white"/>
<mask id="mask0_153_28854" style="mask-type:luminance" maskUnits="userSpaceOnUse" x="14" y="13" width="11" height="13">
<path fill-rule="evenodd" clip-rule="evenodd" d="M14.25 13.8751H24.9879V25.7123H14.25V13.8751Z" fill="white"/>
</mask>
<g mask="url(#mask0_153_28854)">
<path fill-rule="evenodd" clip-rule="evenodd" d="M21.1939 15.1355L15.3095 22.4949C15.2027 22.6286 15.1633 22.8011 15.2027 22.9667L15.6283 24.7699L17.5277 24.7461C17.7083 24.7442 17.8752 24.6636 17.9858 24.5261C19.9964 22.0105 23.8295 17.2142 23.9383 17.0736C24.0408 16.9074 24.0808 16.6724 24.027 16.4461C23.972 16.2142 23.8277 16.0174 23.6195 15.8917C23.5752 15.8611 22.522 15.0436 22.4895 15.018C22.0933 14.7005 21.5152 14.7555 21.1939 15.1355ZM15.2583 25.7124C15.0414 25.7124 14.8527 25.5636 14.802 25.3517L14.2902 23.1824C14.1845 22.733 14.2895 22.2692 14.5777 21.9092L20.4652 14.5455C20.4677 14.543 20.4695 14.5399 20.472 14.5374C21.1177 13.7655 22.2852 13.6517 23.0727 14.2836C23.1039 14.308 24.1495 15.1205 24.1495 15.1205C24.5295 15.3467 24.8264 15.7511 24.9389 16.2299C25.0508 16.7036 24.9695 17.1924 24.7089 17.6055C24.6895 17.6361 24.6727 17.6624 18.7177 25.1124C18.4308 25.4699 18.0008 25.678 17.5389 25.6836L15.2645 25.7124H15.2583Z" fill="white"/>
</g>
<path fill-rule="evenodd" clip-rule="evenodd" d="M23.1394 19.303C23.0394 19.303 22.9394 19.2711 22.8538 19.2061L19.4463 16.5886C19.2413 16.4311 19.2025 16.1374 19.36 15.9311C19.5181 15.7261 19.8119 15.688 20.0175 15.8455L23.4256 18.4624C23.6306 18.6199 23.6694 18.9142 23.5113 19.1199C23.4194 19.2399 23.28 19.303 23.1394 19.303Z" fill="white"/>
</svg>
