<svg width="52" height="20" viewBox="0 0 52 20" fill="none" xmlns="http://www.w3.org/2000/svg">
<rect width="52" height="20" rx="10" fill="#EEEEEE"/>
<path d="M13.7412 6.66H19.5612V7.34H13.7412V6.66ZM12.7012 9.9H20.8912V10.58H12.7012V9.9ZM16.3712 10.36H17.1912V12.49H16.3712V10.36ZM19.0212 6.66H19.8312V7.33C19.8312 8.08 19.8312 8.99 19.5312 10.23L18.7212 10.13C19.0212 8.92 19.0212 8.06 19.0212 7.33V6.66ZM13.5512 12.22H19.8912V15.28H19.0612V12.9H13.5512V12.22ZM28.0104 6.23H28.8504V15.28H28.0104V6.23ZM28.6204 9.9H30.2904V10.59H28.6204V9.9ZM25.7004 7.21H26.5104C26.5104 9.78 25.3304 12.1 22.4104 13.57L21.9504 12.93C24.4504 11.66 25.7004 9.73 25.7004 7.34V7.21ZM22.3704 7.21H26.1304V7.89H22.3704V7.21ZM35.3596 7.52H37.9096V8.17H35.3596V7.52ZM35.3596 9.17H37.9096V9.82H35.3596V9.17ZM37.6996 6.24H38.5296V10.95H37.6996V6.24ZM32.7096 11.4H38.5296V13.54H33.5396V14.93H32.7296V12.92H37.7096V12.06H32.7096V11.4ZM32.7296 14.5H38.8596V15.16H32.7296V14.5ZM31.5396 6.65H32.3596V7.95H34.8096V6.65H35.6196V10.6H31.5396V6.65ZM32.3596 8.6V9.93H34.8096V8.6H32.3596Z" fill="#3B3B3B"/>
</svg>
