<svg width="64" height="32" viewBox="0 0 64 32" fill="none" xmlns="http://www.w3.org/2000/svg">
<rect x="0.5" y="0.5" width="63" height="31" rx="9.5" fill="#ECEBE4"/>
<rect x="0.5" y="0.5" width="63" height="31" rx="9.5" stroke="#D5D5D5"/>
<path d="M31.5898 17.7383H27.3477V21.0078H26.2461V17.7383H22.0156V16.8242H31.5898V17.7383ZM30.6758 12.6641H27.3594C27.3789 13.0469 27.5527 13.418 27.8809 13.7773C28.209 14.1367 28.6484 14.4453 29.1992 14.7031C29.75 14.957 30.3516 15.125 31.0039 15.207L30.6055 16.0977C29.7617 15.9805 29.002 15.7363 28.3262 15.3652C27.6504 14.9902 27.1426 14.5352 26.8027 14C26.4629 14.5391 25.9531 14.9941 25.2734 15.3652C24.5977 15.7363 23.8359 15.9805 22.9883 16.0977L22.5781 15.207C23.2344 15.125 23.8379 14.957 24.3887 14.7031C24.9395 14.4492 25.3809 14.1445 25.7129 13.7891C26.0449 13.4297 26.2227 13.0547 26.2461 12.6641H22.918V11.7617H26.2461V10.4961H27.3477V11.7617H30.6758V12.6641ZM40.5664 14.6797H42.1953V15.6055H40.5664V20.9844H39.4531V10.4961H40.5664V14.6797ZM37.8242 11.5977C37.8164 13.1992 37.4277 14.6367 36.6582 15.9102C35.8887 17.1836 34.6758 18.2305 33.0195 19.0508L32.3984 18.1836C33.7109 17.5273 34.7246 16.7266 35.4395 15.7812C36.1582 14.8359 36.5742 13.75 36.6875 12.5234H32.9258V11.5977H37.8242Z" fill="black"/>
</svg>
