<svg width="140" height="37" viewBox="0 0 140 37" fill="none" xmlns="http://www.w3.org/2000/svg">
<rect width="140" height="37" rx="10" fill="#366943"/>
<path d="M40.164 13.366H41.564V26.162H40.164V13.366ZM38.344 18.35H40.654V19.54H38.344V18.35ZM37.336 13.604H38.722V25.546H37.336V13.604ZM31.05 14.766H36.006V22.83H31.05V14.766ZM34.634 15.928H32.422V21.682H34.634V15.928ZM46.5469 15.494H47.7509V16.012C47.7509 18.266 46.4209 20.198 44.1109 20.898L43.4249 19.764C45.4129 19.148 46.5469 17.622 46.5469 16.012V15.494ZM46.8129 15.494H48.0029V16.012C48.0029 17.51 49.1789 18.924 51.1669 19.456L50.4949 20.618C48.1849 19.96 46.8129 18.154 46.8129 16.012V15.494ZM43.7889 14.836H50.7609V15.998H43.7889V14.836ZM46.5469 13.38H48.0169V15.354H46.5469V13.38ZM52.3149 13.38H53.7849V21.15H52.3149V13.38ZM49.5009 21.402C52.1889 21.402 53.8409 22.27 53.8409 23.768C53.8409 25.28 52.1889 26.148 49.5009 26.148C46.8129 26.148 45.1749 25.28 45.1749 23.768C45.1749 22.27 46.8129 21.402 49.5009 21.402ZM49.5009 22.536C47.6809 22.536 46.6449 22.97 46.6449 23.768C46.6449 24.58 47.6809 25.014 49.5009 25.014C51.3209 25.014 52.3709 24.58 52.3709 23.768C52.3709 22.97 51.3209 22.536 49.5009 22.536ZM68.2263 13.366H69.6403V26.162H68.2263V13.366ZM62.8923 18.448H65.9023V19.624H62.8923V18.448ZM65.5523 13.674H66.9243V25.546H65.5523V13.674ZM62.7943 14.934H64.2083C64.2083 18.42 62.9763 21.388 59.4623 23.446L58.6223 22.41C61.5903 20.632 62.7943 18.266 62.7943 15.214V14.934ZM59.2523 14.934H63.2983V16.124H59.2523V14.934ZM74.5533 14.416H75.7573V16.516C75.7573 19.61 74.3713 22.452 72.0753 23.572L71.1933 22.354C73.2373 21.43 74.5533 18.966 74.5533 16.516V14.416ZM74.8333 14.416H76.0233V16.516C76.0233 18.868 77.3253 21.22 79.3413 22.116L78.4733 23.292C76.2193 22.228 74.8333 19.498 74.8333 16.516V14.416ZM80.3633 13.352H81.8333V26.176H80.3633V13.352ZM85.3462 13.898H93.5222V15.06H85.3462V13.898ZM83.9042 18.014H95.4962V19.19H83.9042V18.014ZM92.6122 13.898H94.0542V14.738C94.0542 15.662 94.0542 16.838 93.7182 18.364L92.2762 18.224C92.6122 16.712 92.6122 15.634 92.6122 14.738V13.898ZM85.2342 20.282H94.0542V23.684H86.7182V25.252H85.2482V22.578H92.5982V21.43H85.2342V20.282ZM85.2482 24.888H94.3902V26.036H85.2482V24.888ZM102.378 14.682H103.582V15.606C103.582 17.986 102.28 20.044 100.012 20.814L99.2416 19.68C101.258 18.994 102.378 17.342 102.378 15.606V14.682ZM102.658 14.682H103.848V15.606C103.848 17.216 104.926 18.784 106.886 19.428L106.144 20.576C103.904 19.82 102.658 17.846 102.658 15.606V14.682ZM99.6616 14.192H106.536V15.382H99.6616V14.192ZM107.88 13.366H109.35V21.066H107.88V13.366ZM108.944 16.614H111.156V17.832H108.944V16.614ZM100.936 21.696H109.35V26.162H107.88V22.886H100.936V21.696ZM115.075 14.066H116.293V15.298C116.293 17.818 115.005 19.946 112.667 20.772L111.897 19.582C113.955 18.896 115.075 17.174 115.075 15.298V14.066ZM115.355 14.066H116.545V15.242C116.545 17.006 117.609 18.602 119.555 19.246L118.771 20.394C116.573 19.596 115.355 17.636 115.355 15.242V14.066ZM121.095 13.366H122.565V20.898H121.095V13.366ZM118.295 21.262C120.969 21.262 122.607 22.158 122.607 23.698C122.607 25.252 120.969 26.148 118.295 26.148C115.621 26.148 113.983 25.252 113.983 23.698C113.983 22.158 115.621 21.262 118.295 21.262ZM118.295 22.41C116.489 22.41 115.439 22.872 115.439 23.698C115.439 24.538 116.489 25 118.295 25C120.115 25 121.151 24.538 121.151 23.698C121.151 22.872 120.115 22.41 118.295 22.41ZM118.505 15.9H121.347V17.104H118.505V15.9Z" fill="white"/>
</svg>
