<svg width="43" height="20" viewBox="0 0 43 20" fill="none" xmlns="http://www.w3.org/2000/svg">
<rect width="43" height="20" rx="10" fill="#366943"/>
<path d="M15.0308 7.53H15.6908V9C15.6908 10.88 14.5408 12.82 13.1308 13.54L12.6508 12.88C13.9408 12.25 15.0308 10.53 15.0308 9V7.53ZM15.1808 7.53H15.8408V9C15.8408 10.43 16.8608 12.04 18.1708 12.66L17.7008 13.32C16.2708 12.61 15.1808 10.79 15.1808 9V7.53ZM12.9708 7.16H17.8408V7.86H12.9708V7.16ZM18.9108 6.24H19.7508V15.28H18.9108V6.24ZM19.5508 9.89H21.2308V10.59H19.5508V9.89ZM24.09 11.83H24.94V15.28H24.09V11.83ZM27.2 11.83H28.05V15.28H27.2V11.83ZM21.99 11.38H30.19V12.07H21.99V11.38ZM26.07 6.6C27.96 6.6 29.23 7.36 29.23 8.57C29.23 9.77 27.96 10.54 26.07 10.54C24.19 10.54 22.91 9.77 22.91 8.57C22.91 7.36 24.19 6.6 26.07 6.6ZM26.07 7.27C24.69 7.27 23.75 7.78 23.75 8.57C23.75 9.36 24.69 9.87 26.07 9.87C27.45 9.87 28.38 9.36 28.38 8.57C28.38 7.78 27.45 7.27 26.07 7.27Z" fill="white"/>
</svg>
