<svg width="61" height="20" viewBox="0 0 61 20" fill="none" xmlns="http://www.w3.org/2000/svg">
<rect width="61" height="20" rx="10" fill="#366943"/>
<path d="M14.4916 6.8H15.1516V8.01C15.1516 9.36 14.3716 10.78 13.0416 11.37L12.5916 10.72C13.7816 10.2 14.4916 9.03 14.4916 8.01V6.8ZM14.6216 6.8H15.2816V8.01C15.2816 9.01 15.9616 10.03 17.1216 10.48L16.6716 11.11C15.3716 10.59 14.6216 9.34 14.6216 8.01V6.8ZM19.4216 6.25H20.2116V11.82H19.4216V6.25ZM17.9816 8.66H19.6916V9.34H17.9816V8.66ZM17.4816 6.42H18.2716V11.53H17.4816V6.42ZM17.2416 12.02C19.1016 12.02 20.2616 12.62 20.2616 13.65C20.2616 14.67 19.1016 15.26 17.2416 15.26C15.3716 15.26 14.2316 14.67 14.2316 13.65C14.2316 12.62 15.3716 12.02 17.2416 12.02ZM17.2416 12.67C15.8816 12.67 15.0416 13.03 15.0416 13.65C15.0416 14.26 15.8816 14.62 17.2416 14.62C18.6016 14.62 19.4316 14.26 19.4316 13.65C19.4316 13.03 18.6016 12.67 17.2416 12.67ZM27.9708 6.24H28.8008V11.57H27.9708V6.24ZM28.4508 8.55H30.1208V9.24H28.4508V8.55ZM22.9508 11.98H28.8008V13.81H23.7808V14.77H22.9708V13.26H27.9908V12.57H22.9508V11.98ZM22.9708 14.59H29.1508V15.18H22.9708V14.59ZM24.1608 9.95H24.9908V11.1H24.1608V9.95ZM21.8408 11.37L21.7408 10.76C23.3508 10.76 25.5708 10.75 27.4308 10.49L27.5008 11.02C25.5708 11.36 23.4208 11.37 21.8408 11.37ZM21.9708 6.93H27.1608V7.52H21.9708V6.93ZM24.5708 7.8C25.8508 7.8 26.6708 8.24 26.6708 8.99C26.6708 9.74 25.8508 10.18 24.5708 10.18C23.2808 10.18 22.4608 9.74 22.4608 8.99C22.4608 8.24 23.2808 7.8 24.5708 7.8ZM24.5708 8.35C23.7608 8.35 23.2408 8.59 23.2408 8.99C23.2408 9.39 23.7608 9.64 24.5708 9.64C25.3808 9.64 25.8908 9.39 25.8908 8.99C25.8908 8.59 25.3808 8.35 24.5708 8.35ZM24.1608 6.15H24.9908V7.24H24.1608V6.15ZM32.03 11.66H32.85V12.71H37.27V11.66H38.1V15.16H32.03V11.66ZM32.85 13.35V14.49H37.27V13.35H32.85ZM30.99 10.36H39.16V11.03H30.99V10.36ZM34.66 6.34H35.37V6.74C35.37 8.31 33.62 9.44 31.76 9.72L31.46 9.07C33.09 8.85 34.66 7.88 34.66 6.74V6.34ZM34.79 6.34H35.5V6.74C35.5 7.86 37.09 8.85 38.7 9.07L38.39 9.72C36.55 9.44 34.79 8.29 34.79 6.74V6.34ZM40.6792 6.94H44.6792V7.62H40.6792V6.94ZM42.0392 8.96H42.8592V11.22H42.0392V8.96ZM44.3492 6.94H45.1692V7.42C45.1692 8.01 45.1692 8.91 44.9292 10.1L44.1192 10.01C44.3492 8.82 44.3492 8 44.3492 7.42V6.94ZM46.3992 6.24H47.2292V13.05H46.3992V6.24ZM46.8492 9.18H48.5192V9.87H46.8492V9.18ZM41.5192 14.4H47.5192V15.08H41.5192V14.4ZM41.5192 12.42H42.3392V14.61H41.5192V12.42ZM40.2192 11.61L40.1292 10.93C41.7392 10.93 43.9592 10.89 45.7892 10.64L45.8492 11.24C43.9692 11.57 41.8092 11.61 40.2192 11.61Z" fill="#F3E6E6"/>
</svg>
