<svg width="152" height="77" viewBox="0 0 152 77" fill="none" xmlns="http://www.w3.org/2000/svg">
<path d="M0.429375 29L4.98938 4.68L5.42938 2.6H13.9894L8.94938 29H0.429375ZM25.1894 26.64C24.4694 28.7467 22.7227 29.8 19.9494 29.8C17.896 29.8 16.1627 28.5733 14.7494 26.12C13.3094 23.6667 12.456 20.44 12.1894 16.44C15.1227 11.08 17.6027 7.29333 19.6294 5.08C21.576 2.97333 23.5627 1.92 25.5894 1.92C26.6827 1.92 27.616 2.21333 28.3894 2.8C29.1894 3.38667 29.6827 4.14667 29.8694 5.08C28.9627 5.45333 28.296 5.78667 27.8694 6.08C26.8027 6.88 25.5494 8.17333 24.1094 9.96L20.4694 14.32C19.8827 15.0133 19.4694 15.52 19.2294 15.84C19.6294 18.08 20.4294 20.3067 21.6294 22.52C22.776 24.6267 23.9627 26 25.1894 26.64ZM38.9219 10.04C40.3619 8.54667 42.6019 7.8 45.6419 7.8C47.3219 7.8 48.6152 8.25333 49.5219 9.16C50.4552 10.04 50.9219 11.3067 50.9219 12.96C50.9219 14.5867 50.4552 15.9867 49.5219 17.16C48.6152 18.3067 47.3085 19.12 45.6019 19.6C45.7352 20.1333 45.8952 20.68 46.0819 21.24L46.6419 22.84C47.1485 24.2 47.6019 25.12 48.0019 25.6C48.4019 26.08 48.8685 26.4 49.4019 26.56C49.1085 27.6533 48.4285 28.4933 47.3619 29.08C46.5085 29.56 45.4952 29.8 44.3219 29.8C40.8819 29.8 38.9352 27.1467 38.4819 21.84C38.4019 21.0933 38.3619 20.3467 38.3619 19.6C39.6952 19.2267 40.8285 18.4133 41.7619 17.16C42.6952 15.9067 43.1619 14.5467 43.1619 13.08C43.1619 11.6133 42.6419 10.88 41.6019 10.88C40.8552 10.88 40.1885 11.2933 39.6019 12.12C39.0152 12.9467 38.5885 14.0667 38.3219 15.48L35.6819 29L27.6019 29.8L33.2019 0.999998L41.2419 0.199999L40.3219 4.96C39.9219 7.2 39.4552 8.89333 38.9219 10.04ZM61.4625 29.8C55.5958 29.8 52.6625 27.04 52.6625 21.52C52.6625 17.6 53.7425 14.3733 55.9025 11.84C58.1958 9.14667 61.3292 7.8 65.3025 7.8C68.1825 7.8 70.3558 8.46667 71.8225 9.8C73.2892 11.1333 74.0225 13.2 74.0225 16C74.0225 20.2667 72.8758 23.64 70.5825 26.12C68.3425 28.5733 65.3025 29.8 61.4625 29.8ZM62.5025 12.4C62.1825 13.12 61.8892 14.0267 61.6225 15.12C61.3825 16.1867 61.1025 17.5733 60.7825 19.28C60.4625 20.9867 60.3025 22.8933 60.3025 25C60.3025 25.6933 60.4092 26.2667 60.6225 26.72C60.8625 27.1733 61.2892 27.4 61.9025 27.4C62.5158 27.4 63.0092 27.2533 63.3825 26.96C63.7825 26.6667 64.1292 26.1733 64.4225 25.48C64.9558 24.2533 65.4358 22.5067 65.8625 20.24C66.2892 17.9467 66.5158 16.3067 66.5425 15.32C66.5958 14.3333 66.6225 13.48 66.6225 12.76C66.6225 12.0133 66.5158 11.4 66.3025 10.92C66.0892 10.44 65.6758 10.2 65.0625 10.2C64.4758 10.2 63.9825 10.3867 63.5825 10.76C63.1825 11.1333 62.8225 11.68 62.5025 12.4ZM105.175 29.8C101.949 29.8 100.335 28.5467 100.335 26.04C100.335 24.9467 100.562 23.3467 101.015 21.24C101.495 19.1067 101.815 17.6133 101.975 16.76C102.349 14.8133 102.535 13.5333 102.535 12.92C102.535 11.56 102.029 10.88 101.015 10.88C100.349 10.88 99.6953 11.3467 99.0553 12.28C98.4153 13.1867 97.9486 14.56 97.6553 16.4L95.1753 29L87.3753 29.8L89.5353 18.92C89.7753 17.72 90.002 16.44 90.2153 15.08C90.4286 13.72 90.5353 12.9333 90.5353 12.72C90.5353 11.4933 90.082 10.88 89.1753 10.88C88.562 10.88 87.922 11.3333 87.2553 12.24C86.5886 13.1467 86.0686 14.5333 85.6953 16.4L83.2553 29L75.3753 29.8L79.5753 8.6L86.0953 7.8L85.4153 11.84C86.1086 10.4 87.0953 9.37333 88.3753 8.76C89.6553 8.12 91.2953 7.8 93.2953 7.8C94.442 7.8 95.3886 8.08 96.1353 8.64C96.882 9.2 97.3753 9.93333 97.6153 10.84C98.0686 9.90667 98.8686 9.17333 100.015 8.64C101.189 8.08 102.482 7.8 103.895 7.8C105.335 7.8 106.402 7.96 107.095 8.28C107.815 8.57333 108.389 8.97333 108.815 9.48C109.535 10.4133 109.895 11.7333 109.895 13.44C109.895 15.12 109.535 17.7067 108.815 21.2C108.442 22.9067 108.255 24.08 108.255 24.72C108.255 25.3333 108.429 25.8267 108.775 26.2C109.149 26.5733 109.602 26.7867 110.135 26.84C109.869 27.7467 109.269 28.4667 108.335 29C107.429 29.5333 106.375 29.8 105.175 29.8ZM126.051 27.32C124.771 28.9733 122.545 29.8 119.371 29.8C117.718 29.8 116.291 29.3067 115.091 28.32C113.891 27.3067 113.291 26.08 113.291 24.64C113.291 23.84 113.331 23.24 113.411 22.84L116.091 8.6L124.211 7.8L121.291 23.24C121.185 23.8267 121.131 24.2933 121.131 24.64C121.131 26.1867 121.598 26.96 122.531 26.96C123.571 26.96 124.465 26.2533 125.211 24.84C125.451 24.3867 125.625 23.8667 125.731 23.28L128.571 8.6L136.451 7.8L133.491 23.4C133.411 23.8 133.371 24.2133 133.371 24.64C133.371 25.0667 133.491 25.52 133.731 26C133.971 26.4533 134.478 26.7333 135.251 26.84C135.091 27.48 134.731 28.0133 134.171 28.44C132.998 29.3467 131.771 29.8 130.491 29.8C129.238 29.8 128.238 29.5733 127.491 29.12C126.745 28.6667 126.265 28.0667 126.051 27.32ZM148.162 26.8C147.335 28.8 145.602 29.8 142.962 29.8C141.629 29.8 140.535 29.3333 139.682 28.4C138.989 27.6267 138.642 26.8 138.642 25.92C138.642 23.92 139.109 20.7333 140.042 16.36L142.962 0.999998L151.082 0.199999L147.202 20.44C146.749 22.4133 146.522 23.7467 146.522 24.44C146.522 25.96 147.069 26.7467 148.162 26.8ZM44.9913 62.4C43.0713 66.6133 42.1113 71.16 42.1113 76.04C41.3913 76.5467 40.4979 76.8 39.4313 76.8C38.3913 76.8 37.5379 76.5467 36.8713 76.04C36.2046 75.56 35.8046 75.0667 35.6713 74.56C35.0046 75.2533 34.1246 75.8 33.0313 76.2C31.9646 76.6 30.8579 76.8 29.7113 76.8C28.5646 76.8 27.4846 76.6133 26.4713 76.24C25.4846 75.8667 24.6046 75.2667 23.8313 74.44C22.1246 72.6267 21.2713 70 21.2713 66.56C21.2713 61.2267 22.6979 56.96 25.5513 53.76C28.4846 50.4533 32.5513 48.8 37.7513 48.8C41.3513 48.8 43.7913 49.7333 45.0713 51.6C45.4713 52.1867 45.6713 52.84 45.6713 53.56C45.6713 54.2533 45.5113 54.9067 45.1913 55.52C44.8979 56.1067 44.5113 56.64 44.0313 57.12C42.8846 58.1867 41.6046 58.72 40.1913 58.72C39.6313 58.72 39.0846 58.6267 38.5513 58.44C38.6579 57.64 38.7113 56.7733 38.7113 55.84C38.7113 54.9067 38.6713 54.2267 38.5913 53.8C38.5379 53.3733 38.4313 52.9867 38.2713 52.64C37.9246 51.92 37.3646 51.56 36.5913 51.56C35.8446 51.56 35.0446 51.9733 34.1913 52.8C33.3646 53.6 32.6179 54.6667 31.9513 56C30.4846 58.9867 29.7513 62.28 29.7513 65.88C29.7513 67.5333 30.0713 68.9467 30.7113 70.12C31.4046 71.4 32.3646 72.04 33.5913 72.04C34.0179 72.04 34.4179 71.9333 34.7913 71.72C35.1913 71.5067 35.4713 71.32 35.6313 71.16L36.9113 63.12L44.9913 62.4ZM59.8013 74.32C58.5213 75.9733 56.2946 76.8 53.1213 76.8C51.4679 76.8 50.0413 76.3067 48.8413 75.32C47.6413 74.3067 47.0413 73.08 47.0413 71.64C47.0413 70.84 47.0813 70.24 47.1613 69.84L49.8413 55.6L57.9613 54.8L55.0413 70.24C54.9346 70.8267 54.8813 71.2933 54.8813 71.64C54.8813 73.1867 55.3479 73.96 56.2812 73.96C57.3213 73.96 58.2146 73.2533 58.9613 71.84C59.2013 71.3867 59.3746 70.8667 59.4813 70.28L62.3213 55.6L70.2013 54.8L67.2413 70.4C67.1613 70.8 67.1213 71.2133 67.1213 71.64C67.1213 72.0667 67.2413 72.52 67.4813 73C67.7213 73.4533 68.2279 73.7333 69.0013 73.84C68.8413 74.48 68.4813 75.0133 67.9213 75.44C66.7479 76.3467 65.5213 76.8 64.2413 76.8C62.9879 76.8 61.9879 76.5733 61.2413 76.12C60.4946 75.6667 60.0146 75.0667 59.8013 74.32ZM81.9519 73.8C81.1252 75.8 79.3919 76.8 76.7519 76.8C75.3919 76.8 74.2852 76.3333 73.4319 75.4C72.7119 74.5733 72.3519 73.7467 72.3519 72.92C72.3519 70.76 72.8452 67.5733 73.8319 63.36L75.3119 55.6L83.4319 54.8L80.9919 67.44C80.5385 69.4133 80.3119 70.7467 80.3119 71.44C80.3119 72.96 80.8585 73.7467 81.9519 73.8ZM76.0319 50.04C76.0319 49 76.4585 48.2 77.3119 47.64C78.1919 47.08 79.2585 46.8 80.5119 46.8C81.7652 46.8 82.7652 47.08 83.5119 47.64C84.2852 48.2 84.6719 49 84.6719 50.04C84.6719 51.08 84.2452 51.8667 83.3919 52.4C82.5652 52.9333 81.5252 53.2 80.2719 53.2C79.0185 53.2 77.9919 52.9333 77.1919 52.4C76.4185 51.8667 76.0319 51.08 76.0319 50.04ZM97.9597 54.8C98.9197 54.8 99.773 54.9067 100.52 55.12C100.546 55.0133 100.586 54.8133 100.64 54.52L100.84 53.28C100.946 52.7467 101.08 52.04 101.24 51.16L101.88 48L109.84 47.2L105.4 70.4C105.373 70.56 105.36 70.7733 105.36 71.04V71.68C105.36 72.2667 105.506 72.7867 105.8 73.24C106.093 73.6667 106.48 73.88 106.96 73.88C106.426 75.1333 105.346 76.0267 103.72 76.56C103.16 76.72 102.48 76.8 101.68 76.8C100.906 76.8 100.16 76.5867 99.4397 76.16C98.7197 75.76 98.253 75.2133 98.0397 74.52C97.613 75.2133 96.973 75.76 96.1197 76.16C95.2664 76.5867 94.213 76.8 92.9597 76.8C91.733 76.8 90.5997 76.64 89.5597 76.32C88.5464 76 87.7197 75.4933 87.0797 74.8C85.9064 73.44 85.3197 71.2133 85.3197 68.12C85.3197 64.12 86.493 60.9067 88.8397 58.48C91.1864 56.0267 94.2264 54.8 97.9597 54.8ZM97.6797 57.2C96.693 57.2 95.933 57.7333 95.3997 58.8C94.8664 59.8667 94.3197 61.72 93.7597 64.36C93.2264 67 92.9597 69.5067 92.9597 71.88C92.9597 73.5067 93.4397 74.32 94.3997 74.32C95.253 74.32 95.973 73.8933 96.5597 73.04C97.173 72.1867 97.5997 71.0533 97.8397 69.64L99.9997 57.92C99.4397 57.44 98.6664 57.2 97.6797 57.2ZM126.56 69.24C127.226 69.6933 127.56 70.4267 127.56 71.44C127.56 72.4267 127.306 73.24 126.8 73.88C126.293 74.52 125.626 75.0533 124.8 75.48C123.093 76.36 121.32 76.8 119.48 76.8C117.64 76.8 116.173 76.6 115.08 76.2C114.013 75.8 113.12 75.2267 112.4 74.48C110.986 73.0667 110.28 71.0667 110.28 68.48C110.28 64.4533 111.373 61.2133 113.56 58.76C115.906 56.12 119.12 54.8 123.2 54.8C125.733 54.8 127.626 55.3333 128.88 56.4C129.813 57.2 130.28 58.2533 130.28 59.56C130.28 64.2533 126.226 66.6 118.12 66.6C118.013 67.2933 117.96 67.9333 117.96 68.52C117.96 69.7467 118.226 70.6 118.76 71.08C119.32 71.5333 120.106 71.76 121.12 71.76C122.133 71.76 123.173 71.5333 124.24 71.08C125.333 70.6 126.106 69.9867 126.56 69.24ZM118.4 64.88C120.293 64.88 121.786 64.2933 122.88 63.12C123.973 62 124.52 60.5467 124.52 58.76C124.52 58.1467 124.4 57.68 124.16 57.36C123.946 57.0133 123.613 56.84 123.16 56.84C122.706 56.84 122.28 56.9333 121.88 57.12C121.506 57.28 121.12 57.6533 120.72 58.24C119.733 59.5733 118.96 61.7867 118.4 64.88Z" fill="#366943"/>
</svg>
