<svg width="52" height="20" viewBox="0 0 52 20" fill="none" xmlns="http://www.w3.org/2000/svg">
<rect width="52" height="20" rx="10" fill="#366943"/>
<path d="M16.3212 6.86H17.0412V7.55C17.0412 9.52 15.2112 11.05 13.4012 11.46L13.0312 10.77C14.6212 10.47 16.3212 9.09 16.3212 7.55V6.86ZM16.4712 6.86H17.1912V7.55C17.1912 9.1 18.9012 10.47 20.4812 10.77L20.1112 11.46C18.3112 11.05 16.4712 9.53 16.4712 7.55V6.86ZM12.7012 13.38H20.8912V14.06H12.7012V13.38ZM28.5204 6.23H29.3404V15.29H28.5204V6.23ZM26.6404 9.64H28.6404V10.33H26.6404V9.64ZM22.3104 12.43H23.0004C24.7004 12.43 25.7704 12.4 27.0404 12.16L27.1204 12.84C25.8204 13.07 24.7204 13.12 23.0004 13.12H22.3104V12.43ZM22.3104 7.06H26.4904V7.75H23.1304V12.67H22.3104V7.06ZM22.9204 9.6H26.1004V10.27H22.9204V9.6ZM37.6596 6.24H38.4896V15.3H37.6596V6.24ZM31.6796 12.35H32.4096C34.1996 12.35 35.3596 12.29 36.6996 12.04L36.7896 12.74C35.4096 13 34.2296 13.05 32.4096 13.05H31.6796V12.35ZM31.6796 7.1H35.9496V7.79H32.4996V12.61H31.6796V7.1Z" fill="white"/>
</svg>
