<svg width="106" height="106" viewBox="0 0 106 106" fill="none" xmlns="http://www.w3.org/2000/svg">
<g filter="url(#filter0_d_139_17424)">
<circle cx="53" cy="53" r="33" fill="url(#paint0_linear_139_17424)"/>
</g>
<path fill-rule="evenodd" clip-rule="evenodd" d="M68.2504 66.5659H56.1621C55.4721 66.5659 54.9121 66.0059 54.9121 65.3159C54.9121 64.6259 55.4721 64.0659 56.1621 64.0659H68.2504C68.9404 64.0659 69.5004 64.6259 69.5004 65.3159C69.5004 66.0059 68.9404 66.5659 68.2504 66.5659Z" fill="white"/>
<path fill-rule="evenodd" clip-rule="evenodd" d="M55.5171 38.3611L39.8255 57.9861C39.5405 58.3427 39.4355 58.8027 39.5405 59.2444L40.6755 64.0527L45.7405 63.9894C46.2221 63.9844 46.6671 63.7694 46.9621 63.4027C52.3238 56.6944 62.5455 43.9044 62.8355 43.5294C63.1088 43.0861 63.2155 42.4594 63.0721 41.8561C62.9255 41.2377 62.5405 40.7127 61.9855 40.3777C61.8671 40.2961 59.0588 38.1161 58.9721 38.0477C57.9155 37.2011 56.3738 37.3477 55.5171 38.3611ZM39.6888 66.5661C39.1105 66.5661 38.6071 66.1694 38.4721 65.6044L37.1071 59.8194C36.8255 58.6211 37.1055 57.3844 37.8738 56.4244L53.5738 36.7877C53.5805 36.7811 53.5855 36.7727 53.5921 36.7661C55.3138 34.7077 58.4271 34.4044 60.5271 36.0894C60.6105 36.1544 63.3988 38.3211 63.3988 38.3211C64.4121 38.9244 65.2038 40.0027 65.5038 41.2794C65.8021 42.5427 65.5855 43.8461 64.8905 44.9477C64.8388 45.0294 64.7938 45.0994 48.9138 64.9661C48.1488 65.9194 47.0021 66.4744 45.7705 66.4894L39.7055 66.5661H39.6888Z" fill="white"/>
<path fill-rule="evenodd" clip-rule="evenodd" d="M60.7057 49.4745C60.439 49.4745 60.1724 49.3895 59.944 49.2161L50.8574 42.2361C50.3107 41.8161 50.2074 41.0328 50.6274 40.4828C51.049 39.9361 51.8324 39.8345 52.3807 40.2545L61.469 47.2328C62.0157 47.6528 62.119 48.4378 61.6974 48.9861C61.4524 49.3061 61.0807 49.4745 60.7057 49.4745Z" fill="white"/>
<defs>
<filter id="filter0_d_139_17424" x="0" y="0" width="106" height="106" filterUnits="userSpaceOnUse" color-interpolation-filters="sRGB">
<feFlood flood-opacity="0" result="BackgroundImageFix"/>
<feColorMatrix in="SourceAlpha" type="matrix" values="0 0 0 0 0 0 0 0 0 0 0 0 0 0 0 0 0 0 127 0" result="hardAlpha"/>
<feOffset/>
<feGaussianBlur stdDeviation="10"/>
<feComposite in2="hardAlpha" operator="out"/>
<feColorMatrix type="matrix" values="0 0 0 0 0 0 0 0 0 0 0 0 0 0 0 0 0 0 0.5 0"/>
<feBlend mode="normal" in2="BackgroundImageFix" result="effect1_dropShadow_139_17424"/>
<feBlend mode="normal" in="SourceGraphic" in2="effect1_dropShadow_139_17424" result="shape"/>
</filter>
<linearGradient id="paint0_linear_139_17424" x1="32.5" y1="30.5" x2="76.5" y2="76" gradientUnits="userSpaceOnUse">
<stop stop-color="#B7CCAA"/>
<stop offset="1" stop-color="#366943"/>
</linearGradient>
</defs>
</svg>
